<svg width="500" height="238" viewBox="0 0 500 238" xmlns="http://www.w3.org/2000/svg">
  <style>
    .card-bg { fill: #0d1117; stroke: #1f6feb; stroke-width: 1; }
    .repo-name { font: bold 16px sans-serif; fill: #58a6ff; cursor: pointer; text-decoration: underline; }
    .repo-desc { font: 14px sans-serif; fill: #8b949e; }
    .meta { font: 12px sans-serif; fill: #8b949e; }
    .badge { font: 11px sans-serif; fill: #8b949e; }
    .lang-dot { r: 5; }
  </style>
  <rect class="card-bg" x="0" y="0" width="500" height="238" rx="12" ry="12" />
  <a href="https://github.com/Mummanajagadeesh/8-bit-alu" target="_blank">
    <text x="16" y="30" class="repo-name">8-bit-alu</text>
  </a>
  <rect x="430" y="16" rx="4" ry="4" width="55" height="18" fill="#1f6feb1a" stroke="#388bfd" />
  <text x="438" y="29" class="badge">Public</text>
  <text x="16" y="55" class="repo-desc">
    <tspan x="16" dy="0">8-bit ALU implemented in Verilog, designed</tspan>
    <tspan x="16" dy="18">and verified using Xilinx Vivado. RTL to GDS</tspan>
    <tspan x="16" dy="18">flow completed using OpenLane with the</tspan>
    <tspan x="16" dy="18">Sky130 PDK</tspan>
  </text>
  <circle class="lang-dot" cx="16" cy="137" fill="#b2b7f8" />
  <text x="26" y="141" class="meta">Verilog</text>
  <circle class="lang-dot" cx="126" cy="137" fill="#e4cc98" />
  <text x="136" y="141" class="meta">Tcl</text>
  <circle class="lang-dot" cx="236" cy="137" fill="#f1e05a" />
  <text x="246" y="141" class="meta">JavaScript</text>
  <circle class="lang-dot" cx="346" cy="137" fill="#89e051" />
  <text x="356" y="141" class="meta">Shell</text>
  <circle class="lang-dot" cx="16" cy="159" fill="#555555" />
  <text x="26" y="163" class="meta">C</text>
  <circle class="lang-dot" cx="126" cy="159" fill="#E3F171" />
  <text x="136" y="163" class="meta">Pascal</text>
  <circle class="lang-dot" cx="236" cy="159" fill="#C1F12E" />
  <text x="246" y="163" class="meta">Batchfile</text>
  <circle class="lang-dot" cx="346" cy="159" fill="#3572A5" />
  <text x="356" y="163" class="meta">Python</text>
  <circle class="lang-dot" cx="16" cy="181" fill="#5a6986" />
  <text x="26" y="185" class="meta">PureBasic</text>
  <text x="484" y="208" text-anchor="end" class="meta">⭐ 0 star(s)</text>
</svg>
