<svg width="500" height="158" viewBox="0 0 500 158" xmlns="http://www.w3.org/2000/svg">
  <style>
    .card-bg { fill: #0d1117; stroke: #1f6feb; stroke-width: 1; }
    .repo-name { font: bold 16px sans-serif; fill: #58a6ff; cursor: pointer; }
    .repo-desc { font: 14px sans-serif; fill: #8b949e; }
    .meta { font: 12px sans-serif; fill: #8b949e; }
    .badge { font: 11px sans-serif; fill: #8b949e; }
    .lang-dot { r: 5; }
  </style>
  <rect class="card-bg" x="0" y="0" width="500" height="158" rx="12" ry="12" />
  <a href="https://github.com/Mummanajagadeesh/ardupilot" target="_blank">
    <text x="16" y="30" class="repo-name">ardupilot</text>
  </a>
  <text x="16" y="55" class="repo-desc">
    <tspan x="16" dy="0">ArduPlane, ArduCopter, ArduRover, ArduSub</tspan>
    <tspan x="16" dy="18">source</tspan>
  </text>
  <circle class="lang-dot" cx="16" cy="101" fill="#cccccc" />
  <text x="26" y="105" class="meta">C++</text>
  <circle class="lang-dot" cx="126" cy="101" fill="#3572A5" />
  <text x="136" y="105" class="meta">Python</text>
  <circle class="lang-dot" cx="236" cy="101" fill="#cccccc" />
  <text x="246" y="105" class="meta">C</text>
  <circle class="lang-dot" cx="346" cy="101" fill="#cccccc" />
  <text x="356" y="105" class="meta">Objective-C</text>
  <circle class="lang-dot" cx="16" cy="123" fill="#cccccc" />
  <text x="26" y="127" class="meta">Lua</text>
  <circle class="lang-dot" cx="126" cy="123" fill="#e34c26" />
  <text x="136" y="127" class="meta">HTML</text>
  <circle class="lang-dot" cx="236" cy="123" fill="#cccccc" />
  <text x="246" y="127" class="meta">MATLAB</text>
  <circle class="lang-dot" cx="346" cy="123" fill="#cccccc" />
  <text x="356" y="127" class="meta">Shell</text>
  <circle class="lang-dot" cx="16" cy="145" fill="#cccccc" />
  <text x="26" y="149" class="meta">Makefile</text>
  <circle class="lang-dot" cx="126" cy="145" fill="#cccccc" />
  <text x="136" y="149" class="meta">Linker</text>
  <circle class="lang-dot" cx="236" cy="145" fill="#cccccc" />
  <text x="246" y="149" class="meta">Script</text>
  <circle class="lang-dot" cx="346" cy="145" fill="#cccccc" />
  <text x="356" y="149" class="meta">BitBake</text>
  <circle class="lang-dot" cx="16" cy="167" fill="#cccccc" />
  <text x="26" y="171" class="meta">CMake</text>
  <circle class="lang-dot" cx="126" cy="167" fill="#cccccc" />
  <text x="136" y="171" class="meta">JavaScript</text>
  <circle class="lang-dot" cx="236" cy="167" fill="#cccccc" />
  <text x="246" y="171" class="meta">OpenEdge</text>
  <circle class="lang-dot" cx="346" cy="167" fill="#cccccc" />
  <text x="356" y="171" class="meta">ABL</text>
  <circle class="lang-dot" cx="16" cy="189" fill="#cccccc" />
  <text x="26" y="193" class="meta">Batchfile</text>
  <circle class="lang-dot" cx="126" cy="189" fill="#cccccc" />
  <text x="136" y="193" class="meta">Jupyter</text>
  <circle class="lang-dot" cx="236" cy="189" fill="#cccccc" />
  <text x="246" y="193" class="meta">Notebook</text>
  <circle class="lang-dot" cx="346" cy="189" fill="#cccccc" />
  <text x="356" y="193" class="meta">Assembly</text>
  <circle class="lang-dot" cx="16" cy="211" fill="#cccccc" />
  <text x="26" y="215" class="meta">NASL</text>
  <circle class="lang-dot" cx="126" cy="211" fill="#cccccc" />
  <text x="136" y="215" class="meta">Kotlin</text>
  <circle class="lang-dot" cx="236" cy="211" fill="#cccccc" />
  <text x="246" y="215" class="meta">CSS</text>
  <circle class="lang-dot" cx="346" cy="211" fill="#cccccc" />
  <text x="356" y="215" class="meta">Nasal</text>
  <circle class="lang-dot" cx="16" cy="233" fill="#ecdebe" />
  <text x="26" y="237" class="meta">Roff</text>
  <circle class="lang-dot" cx="126" cy="233" fill="#cccccc" />
  <text x="136" y="237" class="meta">Jinja</text>
  <circle class="lang-dot" cx="236" cy="233" fill="#cccccc" />
  <text x="246" y="237" class="meta">PowerShell</text>
  <circle class="lang-dot" cx="346" cy="233" fill="#cccccc" />
  <text x="356" y="237" class="meta">Dockerfile</text>
  <circle class="lang-dot" cx="16" cy="255" fill="#cccccc" />
  <text x="26" y="259" class="meta">Gnuplot</text>
  <circle class="lang-dot" cx="126" cy="255" fill="#cccccc" />
  <text x="136" y="259" class="meta">Emacs</text>
  <circle class="lang-dot" cx="236" cy="255" fill="#cccccc" />
  <text x="246" y="259" class="meta">Lisp</text>
  <text x="16" y="129" class="meta">⭐ 0 star(s)</text>
</svg>
