<svg width="500" height="242" viewBox="0 0 500 242" xmlns="http://www.w3.org/2000/svg">
  <style>
    .card-bg { fill: #fff; stroke: #1f6feb; stroke-width: 1; }
    .repo-name { font: bold 16px sans-serif; fill: #0969da; cursor: pointer; text-decoration: underline; }
    .repo-desc { font: 14px sans-serif; fill: #57606a; }
    .meta { font: 12px sans-serif; fill: #57606a; }
    .badge { font: 11px sans-serif; fill: #57606a; }
    .lang-dot { r: 5; }
  </style>
  <rect class="card-bg" x="0" y="0" width="500" height="242" rx="12" ry="12" />
  <a href="https://github.com/Mummanajagadeesh/bharat-ai-soc-student-challenge" target="_blank">
    <text x="16" y="30" class="repo-name">bharat-ai-soc-student-challenge</text>
  </a>
  <rect x="430" y="16" rx="4" ry="4" width="55" height="18" fill="#ddf4ff" stroke="#0969da" />
  <text x="438" y="29" class="badge">Public</text>
  <text x="16" y="55" class="repo-desc">
    <tspan x="16" dy="0">Real-Time Object Detection Using</tspan>
    <tspan x="16" dy="18">Hardware-Accelerated CNN on Xilinx Zynq FPGA</tspan>
    <tspan x="16" dy="18">with Arm Processor</tspan>
  </text>
  <circle class="lang-dot" cx="16" cy="119" fill="#f34b7d" />
  <text x="26" y="123" class="meta">C++</text>
  <circle class="lang-dot" cx="126" cy="119" fill="#02f88c" />
  <text x="136" y="123" class="meta">Ada</text>
  <circle class="lang-dot" cx="236" cy="119" fill="#b2b7f8" />
  <text x="246" y="123" class="meta">Verilog</text>
  <circle class="lang-dot" cx="346" cy="119" fill="#555555" />
  <text x="356" y="123" class="meta">C</text>
  <circle class="lang-dot" cx="16" cy="141" fill="#adb2cb" />
  <text x="26" y="145" class="meta">VHDL</text>
  <circle class="lang-dot" cx="126" cy="141" fill="#3572A5" />
  <text x="136" y="145" class="meta">Python</text>
  <circle class="lang-dot" cx="236" cy="141" fill="#cccccc" />
  <text x="246" y="145" class="meta">Jupyter</text>
  <circle class="lang-dot" cx="346" cy="141" fill="#cccccc" />
  <text x="356" y="145" class="meta">Notebook</text>
  <circle class="lang-dot" cx="16" cy="163" fill="#e4cc98" />
  <text x="26" y="167" class="meta">Tcl</text>
  <circle class="lang-dot" cx="126" cy="163" fill="#DAE1C2" />
  <text x="136" y="167" class="meta">SystemVerilog</text>
  <circle class="lang-dot" cx="236" cy="163" fill="#89e051" />
  <text x="246" y="167" class="meta">Shell</text>
  <circle class="lang-dot" cx="346" cy="163" fill="#185619" />
  <text x="356" y="167" class="meta">LLVM</text>
  <circle class="lang-dot" cx="16" cy="185" fill="#427819" />
  <text x="26" y="189" class="meta">Makefile</text>
  <circle class="lang-dot" cx="126" cy="185" fill="#E3F171" />
  <text x="136" y="189" class="meta">Pascal</text>
  <circle class="lang-dot" cx="236" cy="185" fill="#C1F12E" />
  <text x="246" y="189" class="meta">Batchfile</text>
  <text x="484" y="212" text-anchor="end" class="meta">⭐ 0 star(s)</text>
</svg>
