<svg width="500" height="282" viewBox="0 0 500 282" xmlns="http://www.w3.org/2000/svg">
  <style>
    .card-bg { fill: #fff; stroke: #1f6feb; stroke-width: 1; }
    .repo-name { font: bold 16px sans-serif; fill: #0969da; cursor: pointer; text-decoration: underline; }
    .repo-desc { font: 14px sans-serif; fill: #57606a; }
    .meta { font: 12px sans-serif; fill: #57606a; }
    .badge { font: 11px sans-serif; fill: #57606a; }
    .lang-dot { r: 5; }
  </style>
  <rect class="card-bg" x="0" y="0" width="500" height="282" rx="12" ry="12" />
  <a href="https://github.com/Mummanajagadeesh/fir-accel-caravel-soc" target="_blank">
    <text x="16" y="30" class="repo-name">fir-accel-caravel-soc</text>
  </a>
  <rect x="430" y="16" rx="4" ry="4" width="55" height="18" fill="#ddf4ff" stroke="#0969da" />
  <text x="438" y="29" class="badge">Public</text>
  <text x="16" y="55" class="repo-desc">
    <tspan x="16" dy="0">Mixed-signal FIR accelerator SoC on</tspan>
    <tspan x="16" dy="18">Caravel/Sky130A — CIC decimator, 8-tap</tspan>
    <tspan x="16" dy="18">programmable FIR filter, PWM DAC, Wishbone</tspan>
    <tspan x="16" dy="18">CSR</tspan>
  </text>
  <circle class="lang-dot" cx="16" cy="137" fill="#b2b7f8" />
  <text x="26" y="141" class="meta">Verilog</text>
  <circle class="lang-dot" cx="126" cy="137" fill="#3572A5" />
  <text x="136" y="141" class="meta">Python</text>
  <circle class="lang-dot" cx="236" cy="137" fill="#e34c26" />
  <text x="246" y="141" class="meta">HTML</text>
  <circle class="lang-dot" cx="346" cy="137" fill="#e4cc98" />
  <text x="356" y="141" class="meta">Tcl</text>
  <circle class="lang-dot" cx="16" cy="159" fill="#3D6117" />
  <text x="26" y="163" class="meta">TeX</text>
  <circle class="lang-dot" cx="126" cy="159" fill="#555555" />
  <text x="136" y="163" class="meta">C</text>
  <circle class="lang-dot" cx="236" cy="159" fill="#f1e05a" />
  <text x="246" y="163" class="meta">JavaScript</text>
  <circle class="lang-dot" cx="346" cy="159" fill="#663399" />
  <text x="356" y="163" class="meta">CSS</text>
  <circle class="lang-dot" cx="16" cy="181" fill="#427819" />
  <text x="26" y="185" class="meta">Makefile</text>
  <circle class="lang-dot" cx="126" cy="181" fill="#f34b7d" />
  <text x="136" y="185" class="meta">C++</text>
  <circle class="lang-dot" cx="236" cy="181" fill="#012456" />
  <text x="246" y="185" class="meta">PowerShell</text>
  <circle class="lang-dot" cx="346" cy="181" fill="#89e051" />
  <text x="356" y="185" class="meta">Shell</text>
  <circle class="lang-dot" cx="16" cy="203" fill="#e5cd45" />
  <text x="26" y="207" class="meta">OpenSCAD</text>
  <circle class="lang-dot" cx="126" cy="203" fill="#C1F12E" />
  <text x="136" y="207" class="meta">Batchfile</text>
  <circle class="lang-dot" cx="236" cy="203" fill="#EB8CEB" />
  <text x="246" y="207" class="meta">XSLT</text>
  <circle class="lang-dot" cx="346" cy="203" fill="#00ADD8" />
  <text x="356" y="207" class="meta">Go</text>
  <circle class="lang-dot" cx="16" cy="225" fill="#cccccc" />
  <text x="26" y="229" class="meta">Template</text>
  <text x="484" y="252" text-anchor="end" class="meta">⭐ 0 star(s)</text>
</svg>
