<svg width="500" height="140" viewBox="0 0 500 140" xmlns="http://www.w3.org/2000/svg">
  <style>
    .card-bg { fill: #fff; stroke: #1f6feb; stroke-width: 1; }
    .repo-name { font: bold 16px sans-serif; fill: #0969da; cursor: pointer; }
    .repo-desc { font: 14px sans-serif; fill: #57606a; }
    .meta { font: 12px sans-serif; fill: #57606a; }
    .badge { font: 11px sans-serif; fill: #57606a; }
    .lang-dot { r: 5; }
  </style>
  <rect class="card-bg" x="0" y="0" width="500" height="140" rx="12" ry="12" />
  <a href="https://github.com/Mummanajagadeesh/NeVer" target="_blank">
    <text x="16" y="30" class="repo-name">NeVer</text>
  </a>
  <rect x="420" y="16" rx="4" ry="4" width="65" height="18" fill="#ddf4ff" stroke="#0969da" />
  <text x="428" y="29" class="badge">Private</text>
  <text x="16" y="55" class="repo-desc">
    <tspan x="16" dy="0">NEural NEtwork on VERilog</tspan>
  </text>
  <circle class="lang-dot" cx="16" cy="83" fill="#f1e05a" />
  <text x="26" y="87" class="meta">Verilog</text>
  <circle class="lang-dot" cx="126" cy="83" fill="#cccccc" />
  <text x="136" y="87" class="meta">Jupyter</text>
  <circle class="lang-dot" cx="236" cy="83" fill="#cccccc" />
  <text x="246" y="87" class="meta">Notebook</text>
  <circle class="lang-dot" cx="346" cy="83" fill="#3572A5" />
  <text x="356" y="87" class="meta">Python</text>
  <circle class="lang-dot" cx="16" cy="105" fill="#cccccc" />
  <text x="26" y="109" class="meta">Perl</text>
  <circle class="lang-dot" cx="126" cy="105" fill="#cccccc" />
  <text x="136" y="109" class="meta">Tcl</text>
  <circle class="lang-dot" cx="236" cy="105" fill="#cccccc" />
  <text x="246" y="109" class="meta">C++</text>
  <circle class="lang-dot" cx="346" cy="105" fill="#cccccc" />
  <text x="356" y="109" class="meta">Shell</text>
  <circle class="lang-dot" cx="16" cy="127" fill="#cccccc" />
  <text x="26" y="131" class="meta">Makefile</text>
  <circle class="lang-dot" cx="126" cy="127" fill="#cccccc" />
  <text x="136" y="131" class="meta">Batchfile</text>
  <circle class="lang-dot" cx="236" cy="127" fill="#cccccc" />
  <text x="246" y="131" class="meta">CMake</text>
  <text x="16" y="111" class="meta">⭐ 1 star(s)</text>
</svg>
