<svg width="500" height="180" viewBox="0 0 500 180" xmlns="http://www.w3.org/2000/svg">
  <style>
    .card-bg { fill: #0d1117; stroke: #1f6feb; stroke-width: 1; }
    .repo-name { font: bold 16px sans-serif; fill: #58a6ff; cursor: pointer; text-decoration: underline; }
    .repo-desc { font: 14px sans-serif; fill: #8b949e; }
    .meta { font: 12px sans-serif; fill: #8b949e; }
    .badge { font: 11px sans-serif; fill: #8b949e; }
    .lang-dot { r: 5; }
  </style>
  <defs>
    <clipPath id="avatarClip">
      <circle cx="26" cy="22" r="10" />
    </clipPath>
  </defs>
  <rect class="card-bg" x="0" y="0" width="500" height="180" rx="12" ry="12" />
  <image href="https://avatars.githubusercontent.com/u/75290381?v=4" x="16" y="12" width="20" height="20" clip-path="url(#avatarClip)" />
  <a href="https://github.com/Mummanajagadeesh/V-RU81K5CU83" target="_blank">
    <text x="44" y="30" class="repo-name">V-RU81K5CU83</text>
  </a>
  <rect x="420" y="16" rx="4" ry="4" width="65" height="18" fill="#1f6feb1a" stroke="#388bfd" />
  <text x="428" y="29" class="badge">Private</text>
  <text x="16" y="55" class="repo-desc">
    <tspan x="16" dy="0">Virtual Rubik's Cube Simulator using</tspan>
    <tspan x="16" dy="18">Kociemba Solver</tspan>
  </text>
  <circle class="lang-dot" cx="16" cy="101" fill="#178600" />
  <text x="26" y="105" class="meta">C#</text>
  <circle class="lang-dot" cx="126" cy="101" fill="#9400ff" />
  <text x="136" y="105" class="meta">ASP.NET</text>
  <circle class="lang-dot" cx="236" cy="101" fill="#f34b7d" />
  <text x="246" y="105" class="meta">C++</text>
  <circle class="lang-dot" cx="346" cy="101" fill="#0000cc" />
  <text x="356" y="105" class="meta">GAP</text>
  <circle class="lang-dot" cx="16" cy="123" fill="#6866fb" />
  <text x="26" y="127" class="meta">Objective-C++</text>
  <circle class="lang-dot" cx="126" cy="123" fill="#222c37" />
  <text x="136" y="127" class="meta">ShaderLab</text>
  <circle class="lang-dot" cx="236" cy="123" fill="#aace60" />
  <text x="246" y="127" class="meta">HLSL</text>
  <circle class="lang-dot" cx="346" cy="123" fill="#DA3434" />
  <text x="356" y="127" class="meta">CMake</text>
  <text x="484" y="150" text-anchor="end" class="meta">⭐ 1 star(s)</text>
</svg>
