<svg width="500" height="158" viewBox="0 0 500 158" xmlns="http://www.w3.org/2000/svg">
  <style>
    .card-bg { fill: #0d1117; stroke: #1f6feb; stroke-width: 1; }
    .repo-name { font: bold 16px sans-serif; fill: #58a6ff; cursor: pointer; }
    .repo-desc { font: 14px sans-serif; fill: #8b949e; }
    .meta { font: 12px sans-serif; fill: #8b949e; }
    .badge { font: 11px sans-serif; fill: #8b949e; }
    .lang-dot { r: 5; }
  </style>
  <rect class="card-bg" x="0" y="0" width="500" height="158" rx="12" ry="12" />
  <a href="https://github.com/Mummanajagadeesh/vision" target="_blank">
    <text x="16" y="30" class="repo-name">vision</text>
  </a>
  <text x="16" y="55" class="repo-desc">
    <tspan x="16" dy="0">Datasets, Transforms and Models specific to</tspan>
    <tspan x="16" dy="18">Computer Vision</tspan>
  </text>
  <circle class="lang-dot" cx="16" cy="101" fill="#3572A5" />
  <text x="26" y="105" class="meta">Python</text>
  <circle class="lang-dot" cx="126" cy="101" fill="#cccccc" />
  <text x="136" y="105" class="meta">C++</text>
  <circle class="lang-dot" cx="236" cy="101" fill="#cccccc" />
  <text x="246" y="105" class="meta">Cuda</text>
  <circle class="lang-dot" cx="346" cy="101" fill="#cccccc" />
  <text x="356" y="105" class="meta">C</text>
  <circle class="lang-dot" cx="16" cy="123" fill="#cccccc" />
  <text x="26" y="127" class="meta">Objective-C++</text>
  <circle class="lang-dot" cx="126" cy="123" fill="#cccccc" />
  <text x="136" y="127" class="meta">Java</text>
  <circle class="lang-dot" cx="236" cy="123" fill="#cccccc" />
  <text x="246" y="127" class="meta">CMake</text>
  <circle class="lang-dot" cx="346" cy="123" fill="#cccccc" />
  <text x="356" y="127" class="meta">Shell</text>
  <circle class="lang-dot" cx="16" cy="145" fill="#cccccc" />
  <text x="26" y="149" class="meta">Batchfile</text>
  <circle class="lang-dot" cx="126" cy="145" fill="#cccccc" />
  <text x="136" y="149" class="meta">Objective-C</text>
  <circle class="lang-dot" cx="236" cy="145" fill="#cccccc" />
  <text x="246" y="149" class="meta">Ruby</text>
  <text x="16" y="129" class="meta">⭐ 0 star(s)</text>
</svg>
