<svg width="500" height="140" viewBox="0 0 500 140" xmlns="http://www.w3.org/2000/svg">
  <style>
    .card-bg { fill: #fff; stroke: #1f6feb; stroke-width: 1; }
    .repo-name { font: bold 16px sans-serif; fill: #0969da; cursor: pointer; }
    .repo-desc { font: 14px sans-serif; fill: #57606a; }
    .meta { font: 12px sans-serif; fill: #57606a; }
    .badge { font: 11px sans-serif; fill: #57606a; }
    .lang-dot { r: 5; }
  </style>
  <rect class="card-bg" x="0" y="0" width="500" height="140" rx="12" ry="12" />
  <a href="https://github.com/Mummanajagadeesh/webots" target="_blank">
    <text x="16" y="30" class="repo-name">webots</text>
  </a>
  <text x="16" y="55" class="repo-desc">
    <tspan x="16" dy="0">Webots Robot Simulator</tspan>
  </text>
  <circle class="lang-dot" cx="16" cy="83" fill="#cccccc" />
  <text x="26" y="87" class="meta">C++</text>
  <circle class="lang-dot" cx="126" cy="83" fill="#cccccc" />
  <text x="136" y="87" class="meta">C</text>
  <circle class="lang-dot" cx="236" cy="83" fill="#cccccc" />
  <text x="246" y="87" class="meta">JavaScript</text>
  <circle class="lang-dot" cx="346" cy="83" fill="#3572A5" />
  <text x="356" y="87" class="meta">Python</text>
  <circle class="lang-dot" cx="16" cy="105" fill="#cccccc" />
  <text x="26" y="109" class="meta">Makefile</text>
  <circle class="lang-dot" cx="126" cy="105" fill="#cccccc" />
  <text x="136" y="109" class="meta">GLSL</text>
  <circle class="lang-dot" cx="236" cy="105" fill="#e34c26" />
  <text x="246" y="109" class="meta">HTML</text>
  <circle class="lang-dot" cx="346" cy="105" fill="#cccccc" />
  <text x="356" y="109" class="meta">MATLAB</text>
  <circle class="lang-dot" cx="16" cy="127" fill="#cccccc" />
  <text x="26" y="131" class="meta">CSS</text>
  <circle class="lang-dot" cx="126" cy="127" fill="#cccccc" />
  <text x="136" y="131" class="meta">SWIG</text>
  <circle class="lang-dot" cx="236" cy="127" fill="#cccccc" />
  <text x="246" y="131" class="meta">Shell</text>
  <circle class="lang-dot" cx="346" cy="127" fill="#cccccc" />
  <text x="356" y="131" class="meta">Java</text>
  <circle class="lang-dot" cx="16" cy="149" fill="#cccccc" />
  <text x="26" y="153" class="meta">Lua</text>
  <circle class="lang-dot" cx="126" cy="149" fill="#cccccc" />
  <text x="136" y="153" class="meta">Assembly</text>
  <circle class="lang-dot" cx="236" cy="149" fill="#cccccc" />
  <text x="246" y="153" class="meta">PHP</text>
  <circle class="lang-dot" cx="346" cy="149" fill="#cccccc" />
  <text x="356" y="153" class="meta">Pawn</text>
  <circle class="lang-dot" cx="16" cy="171" fill="#cccccc" />
  <text x="26" y="175" class="meta">M4</text>
  <circle class="lang-dot" cx="126" cy="171" fill="#cccccc" />
  <text x="136" y="175" class="meta">Batchfile</text>
  <circle class="lang-dot" cx="236" cy="171" fill="#cccccc" />
  <text x="246" y="175" class="meta">Dockerfile</text>
  <circle class="lang-dot" cx="346" cy="171" fill="#cccccc" />
  <text x="356" y="175" class="meta">M</text>
  <text x="16" y="111" class="meta">⭐ 1 star(s)</text>
</svg>
