<svg width="500" height="140" viewBox="0 0 500 140" xmlns="http://www.w3.org/2000/svg">
  <style>
    .card-bg { fill: #fff; stroke: #1f6feb; stroke-width: 1; }
    .repo-name { font: bold 16px sans-serif; fill: #0969da; cursor: pointer; }
    .repo-desc { font: 14px sans-serif; fill: #57606a; }
    .meta { font: 12px sans-serif; fill: #57606a; }
    .badge { font: 11px sans-serif; fill: #57606a; }
    .lang-dot { r: 5; }
  </style>
  <rect class="card-bg" x="0" y="0" width="500" height="140" rx="12" ry="12" />
  <a href="https://github.com/Mummanajagadeesh/webots" target="_blank">
    <text x="16" y="30" class="repo-name">webots</text>
  </a>
  <text x="16" y="55" class="repo-desc">Webots Robot Simulator</text>
  <circle class="lang-dot" cx="16" cy="80" fill="#cccccc" />
  <text x="26" y="84" class="meta">C++</text>
  <circle class="lang-dot" cx="91" cy="80" fill="#cccccc" />
  <text x="101" y="84" class="meta">C</text>
  <circle class="lang-dot" cx="166" cy="80" fill="#cccccc" />
  <text x="176" y="84" class="meta">JavaScript</text>
  <circle class="lang-dot" cx="241" cy="80" fill="#3572A5" />
  <text x="251" y="84" class="meta">Python</text>
  <circle class="lang-dot" cx="316" cy="80" fill="#cccccc" />
  <text x="326" y="84" class="meta">Makefile</text>
  <circle class="lang-dot" cx="391" cy="80" fill="#cccccc" />
  <text x="401" y="84" class="meta">GLSL</text>
  <circle class="lang-dot" cx="466" cy="80" fill="#e34c26" />
  <text x="476" y="84" class="meta">HTML</text>
  <circle class="lang-dot" cx="541" cy="80" fill="#cccccc" />
  <text x="551" y="84" class="meta">MATLAB</text>
  <circle class="lang-dot" cx="616" cy="80" fill="#cccccc" />
  <text x="626" y="84" class="meta">CSS</text>
  <circle class="lang-dot" cx="691" cy="80" fill="#cccccc" />
  <text x="701" y="84" class="meta">SWIG</text>
  <circle class="lang-dot" cx="766" cy="80" fill="#cccccc" />
  <text x="776" y="84" class="meta">Shell</text>
  <circle class="lang-dot" cx="841" cy="80" fill="#cccccc" />
  <text x="851" y="84" class="meta">Java</text>
  <circle class="lang-dot" cx="916" cy="80" fill="#cccccc" />
  <text x="926" y="84" class="meta">Lua</text>
  <circle class="lang-dot" cx="991" cy="80" fill="#cccccc" />
  <text x="1001" y="84" class="meta">Assembly</text>
  <circle class="lang-dot" cx="1066" cy="80" fill="#cccccc" />
  <text x="1076" y="84" class="meta">PHP</text>
  <circle class="lang-dot" cx="1141" cy="80" fill="#cccccc" />
  <text x="1151" y="84" class="meta">Pawn</text>
  <circle class="lang-dot" cx="1216" cy="80" fill="#cccccc" />
  <text x="1226" y="84" class="meta">M4</text>
  <circle class="lang-dot" cx="1291" cy="80" fill="#cccccc" />
  <text x="1301" y="84" class="meta">Batchfile</text>
  <circle class="lang-dot" cx="1366" cy="80" fill="#cccccc" />
  <text x="1376" y="84" class="meta">Dockerfile</text>
  <circle class="lang-dot" cx="1441" cy="80" fill="#cccccc" />
  <text x="1451" y="84" class="meta">M</text>
  <text x="16" y="110" class="meta">⭐ 1 star(s)</text>
</svg>
