<svg width="500" height="184" viewBox="0 0 500 184" xmlns="http://www.w3.org/2000/svg">
  <style>
    .card-bg { fill: #0d1117; stroke: #1f6feb; stroke-width: 1; }
    .repo-name { font: bold 16px sans-serif; fill: #58a6ff; cursor: pointer; text-decoration: underline; }
    .repo-desc { font: 14px sans-serif; fill: #8b949e; }
    .meta { font: 12px sans-serif; fill: #8b949e; }
    .badge { font: 11px sans-serif; fill: #8b949e; }
    .lang-dot { r: 5; }
  </style>
  <defs>
    <clipPath id="avatarClip">
      <circle cx="26" cy="22" r="10" />
    </clipPath>
  </defs>
  <rect class="card-bg" x="0" y="0" width="500" height="184" rx="12" ry="12" />
  <image href="https://avatars.githubusercontent.com/u/75290381?v=4" x="16" y="12" width="20" height="20" clip-path="url(#avatarClip)" />
  <a href="https://github.com/Mummanajagadeesh/webots_ros2" target="_blank">
    <text x="44" y="30" class="repo-name">webots_ros2</text>
  </a>
  <rect x="430" y="16" rx="4" ry="4" width="55" height="18" fill="#1f6feb1a" stroke="#388bfd" />
  <text x="438" y="29" class="badge">Public</text>
  <text x="16" y="55" class="repo-desc">
    <tspan x="16" dy="0">Webots ROS 2 packages</tspan>
  </text>
  <circle class="lang-dot" cx="16" cy="83" fill="#555555" />
  <text x="26" y="87" class="meta">C</text>
  <circle class="lang-dot" cx="126" cy="83" fill="#3572A5" />
  <text x="136" y="87" class="meta">Python</text>
  <circle class="lang-dot" cx="236" cy="83" fill="#f34b7d" />
  <text x="246" y="87" class="meta">C++</text>
  <circle class="lang-dot" cx="346" cy="83" fill="#cccccc" />
  <text x="356" y="87" class="meta">SWIG</text>
  <circle class="lang-dot" cx="16" cy="105" fill="#427819" />
  <text x="26" y="109" class="meta">Makefile</text>
  <circle class="lang-dot" cx="126" cy="105" fill="#DA3434" />
  <text x="136" y="109" class="meta">CMake</text>
  <circle class="lang-dot" cx="236" cy="105" fill="#89e051" />
  <text x="246" y="109" class="meta">Shell</text>
  <circle class="lang-dot" cx="346" cy="105" fill="#000080" />
  <text x="356" y="109" class="meta">Lua</text>
  <circle class="lang-dot" cx="16" cy="127" fill="#C1F12E" />
  <text x="26" y="131" class="meta">Batchfile</text>
  <text x="484" y="154" text-anchor="end" class="meta">⭐ 0 star(s)</text>
</svg>
