<svg xmlns="http://www.w3.org/2000/svg" xmlns:xlink="http://www.w3.org/1999/xlink" width="414.35422" height="456.38434">
 <title>Rubiks cube white</title>
 <defs>
  <linearGradient id="linearGradient4025">
   <stop id="stop4027" offset="0"/>
   <stop stop-color="#676767" stop-opacity="0" id="stop4029" offset="1"/>
  </linearGradient>
  <linearGradient id="linearGradient2918">
   <stop id="stop2920" offset="0"/>
   <stop stop-opacity="0" id="stop2922" offset="1"/>
  </linearGradient>
  <radialGradient r="4.53032" fy="573.99396" fx="388.2652" cy="573.99396" cx="388.2652" gradientUnits="userSpaceOnUse" id="radialGradient3629" xlink:href="#linearGradient2918"/>
  <radialGradient r="4.53032" fy="573.99396" fx="388.2652" cy="573.99396" cx="388.2652" gradientUnits="userSpaceOnUse" id="radialGradient3673" xlink:href="#linearGradient2918"/>
  <radialGradient r="4.53032" fy="573.99396" fx="388.2652" cy="573.99396" cx="388.2652" gradientUnits="userSpaceOnUse" id="radialGradient3724" xlink:href="#linearGradient2918"/>
  <radialGradient r="4.53032" fy="573.99396" fx="388.2652" cy="573.99396" cx="388.2652" gradientUnits="userSpaceOnUse" id="radialGradient3793" xlink:href="#linearGradient2918"/>
  <radialGradient r="4.53032" fy="573.99396" fx="388.2652" cy="573.99396" cx="388.2652" gradientUnits="userSpaceOnUse" id="radialGradient3033" xlink:href="#linearGradient2918"/>
  <radialGradient r="4.53032" fy="573.99396" fx="388.2652" cy="573.99396" cx="388.2652" gradientUnits="userSpaceOnUse" id="radialGradient3035" xlink:href="#linearGradient2918"/>
  <radialGradient r="4.53032" fy="573.99396" fx="388.2652" cy="573.99396" cx="388.2652" gradientUnits="userSpaceOnUse" id="radialGradient3037" xlink:href="#linearGradient2918"/>
  <radialGradient r="4.53032" fy="573.99396" fx="388.2652" cy="573.99396" cx="388.2652" gradientUnits="userSpaceOnUse" id="radialGradient3039" xlink:href="#linearGradient2918"/>
  <radialGradient r="4.53032" fy="573.99396" fx="388.2652" cy="573.99396" cx="388.2652" gradientUnits="userSpaceOnUse" id="radialGradient3041" xlink:href="#linearGradient2918"/>
  <radialGradient r="4.53032" fy="573.99396" fx="388.2652" cy="573.99396" cx="388.2652" gradientUnits="userSpaceOnUse" id="radialGradient3043" xlink:href="#linearGradient2918"/>
  <radialGradient r="4.53032" fy="573.99396" fx="388.2652" cy="573.99396" cx="388.2652" gradientUnits="userSpaceOnUse" id="radialGradient3045" xlink:href="#linearGradient2918"/>
  <radialGradient r="4.53032" fy="573.99396" fx="388.2652" cy="573.99396" cx="388.2652" gradientUnits="userSpaceOnUse" id="radialGradient3047" xlink:href="#linearGradient2918"/>
  <radialGradient r="4.53032" fy="573.99396" fx="388.2652" cy="573.99396" cx="388.2652" gradientUnits="userSpaceOnUse" id="radialGradient3049" xlink:href="#linearGradient2918"/>
  <radialGradient r="4.53032" fy="573.99396" fx="388.2652" cy="573.99396" cx="388.2652" gradientUnits="userSpaceOnUse" id="radialGradient3051" xlink:href="#linearGradient2918"/>
  <radialGradient r="4.53032" fy="573.99396" fx="388.2652" cy="573.99396" cx="388.2652" gradientUnits="userSpaceOnUse" id="radialGradient3053" xlink:href="#linearGradient2918"/>
  <radialGradient r="4.53032" fy="573.99396" fx="388.2652" cy="573.99396" cx="388.2652" gradientUnits="userSpaceOnUse" id="radialGradient3055" xlink:href="#linearGradient2918"/>
  <radialGradient r="4.53032" fy="573.99396" fx="388.2652" cy="573.99396" cx="388.2652" gradientUnits="userSpaceOnUse" id="radialGradient3057" xlink:href="#linearGradient2918"/>
  <radialGradient r="4.53032" fy="573.99396" fx="388.2652" cy="573.99396" cx="388.2652" gradientUnits="userSpaceOnUse" id="radialGradient3059" xlink:href="#linearGradient2918"/>
  <radialGradient r="4.53032" fy="573.99396" fx="388.2652" cy="573.99396" cx="388.2652" gradientUnits="userSpaceOnUse" id="radialGradient3061" xlink:href="#linearGradient2918"/>
  <radialGradient r="4.53032" fy="573.99396" fx="388.2652" cy="573.99396" cx="388.2652" gradientUnits="userSpaceOnUse" id="radialGradient2109" xlink:href="#linearGradient2918"/>
  <radialGradient r="4.53032" fy="573.99396" fx="388.2652" cy="573.99396" cx="388.2652" gradientUnits="userSpaceOnUse" id="radialGradient2111" xlink:href="#linearGradient2918"/>
  <radialGradient r="4.53032" fy="573.99396" fx="388.2652" cy="573.99396" cx="388.2652" gradientUnits="userSpaceOnUse" id="radialGradient2113" xlink:href="#linearGradient2918"/>
  <radialGradient r="4.53032" fy="573.99396" fx="388.2652" cy="573.99396" cx="388.2652" gradientUnits="userSpaceOnUse" id="radialGradient2115" xlink:href="#linearGradient2918"/>
  <radialGradient r="4.53032" fy="573.99396" fx="388.2652" cy="573.99396" cx="388.2652" gradientUnits="userSpaceOnUse" id="radialGradient2117" xlink:href="#linearGradient2918"/>
  <radialGradient r="4.53032" fy="573.99396" fx="388.2652" cy="573.99396" cx="388.2652" gradientUnits="userSpaceOnUse" id="radialGradient2119" xlink:href="#linearGradient2918"/>
  <radialGradient r="4.53032" fy="573.99396" fx="388.2652" cy="573.99396" cx="388.2652" gradientUnits="userSpaceOnUse" id="radialGradient2121" xlink:href="#linearGradient2918"/>
  <radialGradient r="4.53032" fy="573.99396" fx="388.2652" cy="573.99396" cx="388.2652" gradientUnits="userSpaceOnUse" id="radialGradient2123" xlink:href="#linearGradient2918"/>
  <radialGradient r="4.53032" fy="573.99396" fx="388.2652" cy="573.99396" cx="388.2652" gradientUnits="userSpaceOnUse" id="radialGradient2125" xlink:href="#linearGradient2918"/>
  <radialGradient r="4.53032" fy="573.99396" fx="388.2652" cy="573.99396" cx="388.2652" gradientUnits="userSpaceOnUse" id="radialGradient2127" xlink:href="#linearGradient2918"/>
  <radialGradient r="4.53032" fy="573.99396" fx="388.2652" cy="573.99396" cx="388.2652" gradientUnits="userSpaceOnUse" id="radialGradient2129" xlink:href="#linearGradient2918"/>
  <radialGradient r="4.53032" fy="573.99396" fx="388.2652" cy="573.99396" cx="388.2652" gradientUnits="userSpaceOnUse" id="radialGradient2131" xlink:href="#linearGradient2918"/>
  <radialGradient r="4.53032" fy="573.99396" fx="388.2652" cy="573.99396" cx="388.2652" gradientUnits="userSpaceOnUse" id="radialGradient2133" xlink:href="#linearGradient2918"/>
  <radialGradient r="4.53032" fy="573.99396" fx="388.2652" cy="573.99396" cx="388.2652" gradientUnits="userSpaceOnUse" id="radialGradient2135" xlink:href="#linearGradient2918"/>
  <radialGradient r="4.53032" fy="573.99396" fx="388.2652" cy="573.99396" cx="388.2652" gradientUnits="userSpaceOnUse" id="radialGradient2137" xlink:href="#linearGradient2918"/>
  <linearGradient id="linearGradient2764">
   <stop stop-color="#757575" offset="0" id="stop2772"/>
   <stop stop-color="#fdfdfd" id="stop2782" offset="0.219449"/>
   <stop stop-color="#d7d7d7" id="stop2776" offset="0.447025"/>
   <stop stop-color="#b5b5b5" offset="0" id="stop2778"/>
   <stop stop-color="#bfbfbf" id="stop2780" offset="0.875"/>
   <stop stop-color="#e8e8e8" offset="0.9375" id="stop3085"/>
   <stop stop-color="#b7b7b7" id="stop2768" offset="1"/>
  </linearGradient>
  <linearGradient id="linearGradient3059">
   <stop stop-color="#250" id="stop3061" offset="0"/>
   <stop stop-color="#2e7400" offset="0.5" id="stop3067"/>
   <stop stop-color="#250" id="stop3063" offset="1"/>
  </linearGradient>
  <linearGradient id="linearGradient3349">
   <stop stop-color="#aca793" id="stop3351" offset="0"/>
   <stop stop-color="#7b7458" id="stop3353" offset="1"/>
  </linearGradient>
  <linearGradient xlink:href="#linearGradient3349" id="linearGradient5071" gradientUnits="userSpaceOnUse" spreadMethod="reflect" x1="241.33696" y1="645.67755" x2="397.58859" y2="645.67755"/>
  <linearGradient xlink:href="#linearGradient3349" id="linearGradient5073" gradientUnits="userSpaceOnUse" spreadMethod="reflect" x1="241.33696" y1="645.67755" x2="397.58859" y2="645.67755"/>
  <linearGradient xlink:href="#linearGradient3349" id="linearGradient5075" gradientUnits="userSpaceOnUse" gradientTransform="translate(1.467088,0.109706)" spreadMethod="reflect" x1="241.33696" y1="645.67755" x2="397.58859" y2="645.67755"/>
  <linearGradient xlink:href="#linearGradient3349" id="linearGradient5077" gradientUnits="userSpaceOnUse" spreadMethod="reflect" x1="241.33696" y1="645.67755" x2="397.58859" y2="645.67755"/>
  <linearGradient xlink:href="#linearGradient3349" id="linearGradient5081" gradientUnits="userSpaceOnUse" spreadMethod="reflect" x1="241.33696" y1="645.67755" x2="397.58859" y2="645.67755"/>
  <linearGradient xlink:href="#linearGradient3349" id="linearGradient5083" gradientUnits="userSpaceOnUse" spreadMethod="reflect" x1="241.33696" y1="645.67755" x2="397.58859" y2="645.67755"/>
 </defs>
 <metadata id="metadata7">image/svg+xmlRubik18/10/2006h0us3sInkscaperubikh0us3s</metadata>
 <g>
  <title>Layer 1</title>
  <g display="inline" id="layer1">
   <g transform="matrix(0.922978 0 0 0.922978 -129.652 -87.5989)" id="g2905">
    <path opacity="0.458716" fill="none" fill-rule="evenodd" stroke-width="1.5" stroke-miterlimit="4" d="m369.20105,302.836639c-2.256775,0.025879 -4.798096,0.952179 -9.275299,3.231659l-38.471802,17.89859c-4.774292,2.674316 -5.237122,5.89566 -2.454285,9.268921l-8.510345,3.870911l-1.370575,-0.958832c-3.238342,-1.235199 -5.201691,-2.085663 -7.458496,-2.059753c-2.256775,0.025909 -4.798065,0.952179 -9.275299,3.231689l-45.069733,21.733978c-4.325714,2.423035 -5.144775,5.31369 -3.187378,8.345581l-10.295288,4.687744c-2.750854,-1.063141 -4.607422,-1.799286 -6.661621,-1.775665c-2.256775,0.025879 -4.798126,0.952179 -9.27533,3.231659l-51.571976,23.687225c-5.793167,3.244995 -5.265213,7.339539 -0.25499,11.470703l36.750641,31.180481c5.193558,5.47345 10.601959,5.021576 15.586319,3.231689l8.191605,7.173645c-5.238297,3.196991 -4.600739,7.218353 0.254974,11.222107l41.531738,36.827026c5.407227,5.698669 11.042297,4.927979 16.191925,2.947632l9.753448,8.558655c-5.652405,3.232849 -5.130981,7.300354 -0.159393,11.399658l48.703308,42.473633c6.702301,7.063416 13.806305,4.284058 19.825592,1.456055l53.070038,-35.299988c5.535431,-3.001648 5.958801,-7.105225 2.677399,-10.689453l12.207703,-7.777344c5.972961,4.282715 12.129669,1.81781 17.435059,-0.674744l45.037811,-30.505737c5.389526,-2.922485 5.936279,-6.891571 2.932373,-10.405334l11.379028,-7.209167c5.491119,2.913452 11.084869,0.681519 15.93692,-1.598053l36.878113,-25.995575c6.748047,-3.659119 5.894775,-8.873383 0,-12.891235l-49.946442,-32.068298c-3.238342,-1.235199 -5.1698,-2.085693 -7.426575,-2.059753c-1.529541,0.017548 -3.231628,0.409851 -5.546082,1.38504l-9.976501,-6.463409c2.530701,-3.25058 1.00061,-7.013947 -3.506165,-10.085693l-44.43222,-27.203003c-3.238342,-1.235199 -5.16983,-2.085663 -7.426605,-2.059753c-1.135162,0.013031 -2.359375,0.219452 -3.85672,0.745758l-9.179718,-5.966217l0.063751,-0.035492c6.748108,-3.659119 1.591858,-5.073486 -4.302948,-9.09137l-38.057434,-24.326447c-3.238403,-1.235168 -5.201752,-2.085632 -7.458527,-2.059723z" id="path3395"/>
    <path fill="none" fill-opacity="0.75" fill-rule="evenodd" stroke="#818181" stroke-width="7.7" stroke-linecap="round" stroke-miterlimit="4" id="path2898" d="m523.165039,442.553436l-48.732819,29.720917"/>
    <path fill="none" fill-opacity="0.75" fill-rule="evenodd" stroke="#818181" stroke-width="7.7" stroke-linecap="round" stroke-miterlimit="4" d="m467.887024,478.470184l-59.956879,39.261261" id="path2896"/>
    <path fill="none" fill-opacity="0.75" fill-rule="evenodd" stroke="#818181" stroke-width="7.7" stroke-linecap="round" stroke-miterlimit="4" id="path2894" d="m400.543182,522.243652l-52.661285,37.577698"/>
    <path fill="none" fill-opacity="0.75" fill-rule="evenodd" stroke="#818181" stroke-width="7.7" stroke-linecap="round" stroke-miterlimit="4" d="m215.112656,448.995911l-37.88092,-37.039124" id="path2892"/>
    <path fill="none" fill-opacity="0.75" fill-rule="evenodd" stroke="#818181" stroke-width="7.7" stroke-linecap="round" stroke-miterlimit="4" id="path2890" d="m269.54895,502.870972l-46.579529,-44.895874"/>
    <path fill="none" fill-opacity="0.75" fill-rule="evenodd" stroke="#818181" stroke-width="7.7" stroke-linecap="round" stroke-miterlimit="4" d="m329.877838,559.271484l-46.579498,-44.895935" id="path2888"/>
    <path fill="none" fill-opacity="0.75" fill-rule="evenodd" stroke="#0969DA" stroke-width="17.046761" stroke-linecap="round" stroke-miterlimit="4" id="path2924" d="m480.651764,416.085541l-63.571289,41.914948"/>
    <path fill="none" fill-opacity="0.75" fill-rule="evenodd" stroke="#0969DA" stroke-width="17.046761" stroke-linecap="round" stroke-miterlimit="4" d="m415.833313,460.700836l7.981567,-67.23819" id="path2932"/>
    <path fill="none" fill-opacity="0.75" fill-rule="evenodd" stroke="#0969DA" stroke-width="17.046761" stroke-linecap="round" stroke-miterlimit="4" id="path2930" d="m494.402557,343.471771l-62.588074,42.096039"/>
    <path fill="none" fill-opacity="0.75" fill-rule="evenodd" stroke="#0969DA" stroke-width="17.046761" stroke-linecap="round" stroke-miterlimit="4" d="m483.092987,401.210175l10.626587,-60.285461" id="path2928"/>
    <path fill="none" fill-opacity="0.75" fill-rule="evenodd" stroke="#0969DA" stroke-width="17.046761" stroke-linecap="round" stroke-miterlimit="4" d="m497.180328,335.535248l7.452026,-60.087067" id="path2926"/>
    <path fill="none" fill-opacity="0.75" fill-rule="evenodd" stroke="#0969DA" stroke-width="17.046761" stroke-linecap="round" stroke-miterlimit="4" d="m407.695923,509.384827l4.053162,-51.103729" id="path2922"/>
    <path fill="none" fill-opacity="0.75" fill-rule="evenodd" stroke="#0969DA" stroke-width="17.046761" stroke-linecap="round" stroke-miterlimit="4" id="path2916" d="m472.233795,465.471039l8.402466,-54.190338"/>
    <path fill="none" fill-opacity="0.75" fill-rule="evenodd" stroke="#0969DA" stroke-width="17.046761" stroke-linecap="round" stroke-miterlimit="4" d="m531.383911,380.534271l-51.457855,35.484894" id="path2920"/>
    <path fill="none" fill-opacity="0.75" fill-rule="evenodd" stroke="#0969DA" stroke-width="17.046761" stroke-linecap="round" stroke-miterlimit="4" id="path2918" d="m544.771362,313.795654l-12.921326,57.878052"/>
    <path fill="none" fill-opacity="0.75" fill-rule="evenodd" stroke="#0969DA" stroke-width="17.046761" stroke-linecap="round" stroke-miterlimit="4" d="m545.317017,311.265869l-53.348114,35.705322" id="path2914"/>
    <path fill="none" fill-opacity="0.75" fill-rule="evenodd" stroke="#0969DA" stroke-width="17.046761" stroke-linecap="round" stroke-miterlimit="4" id="path1947" d="m425.654297,394.759979l7.981567,-81.268158"/>
    <path fill="none" fill-opacity="0.75" fill-rule="evenodd" stroke="#0969DA" stroke-width="16.700001" stroke-linecap="round" stroke-linejoin="round" stroke-miterlimit="4" d="m510.350739,264.149841l50.162994,-33.222092" id="path2011"/>
    <path fill="none" fill-opacity="0.75" fill-rule="evenodd" stroke="#0969DA" stroke-width="16.700001" stroke-linecap="round" stroke-linejoin="round" stroke-miterlimit="4" id="path1999" d="m438.028931,308.296906l69.607574,-42.448303"/>
    <path fill="none" fill-opacity="0.75" fill-rule="evenodd" stroke="#0969DA" stroke-width="16.700001" stroke-linecap="round" stroke-linejoin="round" stroke-miterlimit="4" d="m437.830505,221.590057l68.813934,41.282349" id="path2009"/>
    <path fill="none" fill-opacity="0.75" fill-rule="evenodd" stroke="#0969DA" stroke-width="16.700001" stroke-linecap="round" stroke-linejoin="round" stroke-miterlimit="4" d="m357.869781,257.502991l64.845673,-35.900696" id="path2007"/>
    <path fill="none" fill-opacity="0.75" fill-rule="evenodd" stroke="#0969DA" stroke-width="16.700001" stroke-linecap="round" stroke-linejoin="round" stroke-miterlimit="4" id="path2001" d="m432.564758,216.099716l-62.952515,-37.923645"/>
    <path fill="none" fill-opacity="0.75" fill-rule="evenodd" stroke="#0969DA" stroke-width="16.700001" stroke-linecap="round" stroke-linejoin="round" stroke-miterlimit="4" d="m434.248383,216.941513l50.690186,-27.541473" id="path1993"/>
    <path fill="none" fill-opacity="0.75" fill-rule="evenodd" stroke="#0969DA" stroke-width="16.700001" stroke-linecap="round" stroke-linejoin="round" stroke-miterlimit="4" id="path1991" d="m367.18512,175.132217l49.567841,-22.210098"/>
    <path fill="none" fill-opacity="0.75" fill-rule="evenodd" stroke="#0969DA" stroke-width="16.700001" stroke-linecap="round" stroke-linejoin="round" stroke-miterlimit="4" d="m295.912903,205.156342l61.914185,-25.85788" id="path1989"/>
    <path fill="none" fill-opacity="0.75" fill-rule="evenodd" stroke="#0969DA" stroke-width="16.700001" stroke-linecap="round" stroke-linejoin="round" stroke-miterlimit="4" d="m499.019684,194.211975l60.947906,35.400803" id="path1986"/>
    <path fill="none" fill-opacity="0.75" fill-rule="evenodd" stroke="#0969DA" stroke-width="16.700001" stroke-linecap="round" stroke-linejoin="round" stroke-miterlimit="4" id="path1984" d="m430.881195,155.209671l56.582825,32.226181"/>
    <path fill="none" fill-opacity="0.75" fill-rule="evenodd" stroke="#0969DA" stroke-width="16.700001" stroke-linecap="round" stroke-linejoin="round" stroke-miterlimit="4" id="path1982" d="m314.477112,142.083633l52.565063,-21.38736"/>
    <path fill="none" fill-opacity="0.75" fill-rule="evenodd" stroke="#0969DA" stroke-width="16.700001" stroke-linecap="round" stroke-linejoin="round" stroke-miterlimit="4" d="m368.588135,120.13475l48.445404,26.894791" id="path1981"/>
    <path fill="none" fill-opacity="0.75" fill-rule="evenodd" stroke="#0969DA" stroke-width="16.700001" stroke-linecap="round" stroke-linejoin="round" stroke-miterlimit="4" id="path1979" d="m312.468262,143.14389l49.581909,25.758301"/>
    <path fill="none" fill-opacity="0.75" fill-rule="evenodd" stroke="#0969DA" stroke-width="16.700001" stroke-linecap="round" stroke-linejoin="round" stroke-miterlimit="4" id="path2893" d="m244.852936,172.077026l57.478149,-25.209625"/>
    <path fill="none" fill-opacity="0.75" fill-rule="evenodd" stroke="#0969DA" stroke-width="16.700001" stroke-linecap="round" stroke-linejoin="round" stroke-miterlimit="4" d="m164.320923,206.31015l68.1409,-28.436508" id="path2891"/>
    <path fill="none" fill-opacity="0.75" fill-rule="evenodd" stroke="#0969DA" stroke-width="16.700001" stroke-linecap="round" stroke-linejoin="round" stroke-miterlimit="4" d="m369.59375,262.221802l61.700958,45.808746" id="path2877"/>
    <path fill="none" fill-opacity="0.75" fill-rule="evenodd" stroke="#0969DA" stroke-width="16.700001" stroke-linecap="round" stroke-linejoin="round" stroke-miterlimit="4" id="path2875" d="m299.950531,215.594528l51.780273,41.04686"/>
    <path fill="none" fill-opacity="0.75" fill-rule="evenodd" stroke="#0969DA" stroke-width="16.700001" stroke-linecap="round" stroke-linejoin="round" stroke-miterlimit="4" d="m244.563171,175.132217l43.675262,35.873978" id="path2873"/>
    <path fill="none" fill-opacity="0.75" fill-rule="evenodd" stroke="#0969DA" stroke-width="16.700001" stroke-linecap="round" stroke-linejoin="round" stroke-miterlimit="4" id="path2853" d="m339.520264,509.684753l68.245453,-42.295532"/>
    <path fill="none" fill-opacity="0.75" fill-rule="evenodd" stroke="#0969DA" stroke-width="16.700001" stroke-linecap="round" stroke-linejoin="round" stroke-miterlimit="4" d="m348.629242,440.134369l66.179657,-42.295532" id="path2848"/>
    <path fill="none" fill-opacity="0.75" fill-rule="evenodd" stroke="#0969DA" stroke-width="16.700001" stroke-linecap="round" stroke-linejoin="round" stroke-miterlimit="4" id="path1961" d="m285.578949,455.09726l50.419434,46.917755"/>
    <path fill="none" fill-opacity="0.75" fill-rule="evenodd" stroke="#0969DA" stroke-width="16.700001" stroke-linecap="round" stroke-linejoin="round" stroke-miterlimit="4" d="m218.833954,396.718201l50.419464,46.917755" id="path1959"/>
    <path fill="none" fill-opacity="0.75" fill-rule="evenodd" stroke="#0969DA" stroke-width="17.046761" stroke-linecap="round" stroke-miterlimit="4" d="m275.798615,500.466431l-1.570374,-58.085846" id="path1953"/>
    <path fill="none" fill-opacity="0.75" fill-rule="evenodd" stroke="#0969DA" stroke-width="17.046761" stroke-linecap="round" stroke-miterlimit="4" d="m219.122299,444.082245l-3.907547,-45.231415" id="path2880"/>
    <path fill="none" fill-opacity="0.75" fill-rule="evenodd" stroke="#0969DA" stroke-width="16.700001" stroke-linecap="round" stroke-linejoin="round" stroke-miterlimit="4" d="m175.012085,353.772766l39.317871,38.445526" id="path2889"/>
    <path fill="none" fill-opacity="0.75" fill-rule="evenodd" stroke="#0969DA" stroke-width="16.700001" stroke-linecap="round" stroke-linejoin="round" stroke-miterlimit="4" id="path2850" d="m223.909363,340.306763l51.062958,43.061157"/>
    <path fill="none" fill-opacity="0.75" fill-rule="evenodd" stroke="#0969DA" stroke-width="17.046761" stroke-linecap="round" stroke-miterlimit="4" d="m276.400696,445.381775l-1.278229,-55.748627" id="path2852"/>
    <path fill="none" fill-opacity="0.75" fill-rule="evenodd" stroke="#0969DA" stroke-width="16.700001" stroke-linecap="round" stroke-linejoin="round" stroke-miterlimit="4" id="path2837" d="m284.4935,392.710327l59.475922,48.086365"/>
    <path fill="none" fill-opacity="0.75" fill-rule="evenodd" stroke="#0969DA" stroke-width="17.046761" stroke-linecap="round" stroke-miterlimit="4" d="m340.72345,493.754028l1.351105,-48.152832" id="path2839"/>
    <path opacity="0.353211" fill="none" fill-rule="nonzero" stroke-width="16.700001" stroke-linecap="round" stroke-linejoin="round" marker-start="none" marker-mid="none" marker-end="none" stroke-miterlimit="4" stroke-dashoffset="43.68" d="m349.847565,440.166138a6.124322,6.124322 0 1 1 -12.248627,0a6.124322,6.124322 0 1 1 12.248627,0z" id="path2841"/>
    <g id="g2828">
     <path fill="none" fill-opacity="0.75" fill-rule="evenodd" stroke="#0969DA" stroke-width="16.700001" stroke-linecap="round" stroke-linejoin="round" stroke-miterlimit="4" id="path2820" d="m167.708389,284.241974l49.835129,49.547058l65.177948,-32.508606"/>
     <path fill="none" fill-opacity="0.75" fill-rule="evenodd" stroke="#0969DA" stroke-width="17.046761" stroke-linecap="round" stroke-miterlimit="4" d="m216.492935,390.327362l-1.278229,-62.468018" id="path2822"/>
     <path opacity="0.353211" fill="none" fill-rule="nonzero" stroke-width="16.700001" stroke-linecap="round" stroke-linejoin="round" marker-start="none" marker-mid="none" marker-end="none" stroke-miterlimit="4" stroke-dashoffset="43.68" d="m220.942749,331.919067a6.124322,6.124322 0 1 1 -12.248642,0a6.124322,6.124322 0 1 1 12.248642,0z" id="path2824"/>
    </g>
    <path fill="none" fill-opacity="0.75" fill-rule="evenodd" stroke="#0969DA" stroke-width="17.046761" stroke-linecap="round" stroke-miterlimit="4" id="path3809" d="m274.346466,372.727905l-0.693939,-64.513062"/>
    <path fill="none" fill-opacity="0.75" fill-rule="evenodd" stroke="#0969DA" stroke-width="16.700001" stroke-linecap="round" stroke-linejoin="round" stroke-miterlimit="4" id="path3803" d="m163.485184,209.749191l46.621521,37.276978l67.656876,-31.269196"/>
    <path fill="none" fill-opacity="0.75" fill-rule="evenodd" stroke="#0969DA" stroke-width="17.046761" stroke-linecap="round" stroke-miterlimit="4" d="m412.060822,382.787659l5.712585,-61.455139" id="path3033"/>
    <path fill="none" fill-opacity="0.75" fill-rule="evenodd" stroke="#0969DA" stroke-width="17.062401" stroke-linecap="round" stroke-miterlimit="4" d="m284.893341,375.552399l0.269409,-65.42215" id="path3035"/>
    <path fill="none" fill-opacity="0.75" fill-rule="evenodd" stroke="#0969DA" stroke-width="16.700001" stroke-linecap="round" stroke-linejoin="round" stroke-miterlimit="4" d="m284.391724,378.571625l62.359161,50.40094l64.02179,-42.664063" id="path3037"/>
    <path fill="none" fill-opacity="0.75" fill-rule="evenodd" stroke="#0969DA" stroke-width="17.046761" stroke-linecap="round" stroke-miterlimit="4" id="path3039" d="m346.196198,423.964966l3.980377,-61.591583"/>
    <path fill="none" fill-rule="evenodd" stroke="#ced7fe" stroke-width="1px" id="path3041" d="m294.30603,306.082062l47.729706,37.375671c6.571106,6.215546 13.543976,3.75119 19.445435,1.262695l52.022858,-31.062195c6.615997,-3.219879 5.779449,-7.828705 0,-11.364227l-50.507629,-34.597717c-6.349976,-2.173828 -7.635834,-3.001556 -16.414978,1.010132l-52.022858,27.274139c-5.679779,2.855469 -5.164703,6.466248 -0.252533,10.101501z"/>
    <path fill="none" fill-opacity="0.75" fill-rule="evenodd" stroke="#0969DA" stroke-width="16.700001" stroke-linecap="round" stroke-linejoin="round" stroke-miterlimit="4" id="path3043" d="m286.619415,309.432404l65.956848,48.732941l65.841705,-39.298889"/>
    <path opacity="0.353211" fill="none" fill-rule="nonzero" stroke-width="16.700001" stroke-linecap="round" stroke-linejoin="round" marker-start="none" marker-mid="none" marker-end="none" stroke-miterlimit="4" stroke-dashoffset="43.68" d="m358.454468,357.53476a6.124322,6.124322 0 1 1 -12.248627,0a6.124322,6.124322 0 1 1 12.248627,0z" id="path3045"/>
    <path fill="none" fill-opacity="0.75" fill-rule="evenodd" stroke="#0969DA" stroke-width="16.700001" stroke-linecap="round" stroke-linejoin="round" stroke-miterlimit="4" d="m417.94339,316.402252l-60.261871,-43.987122l-71.062103,35.502228" id="path3049"/>
    <path fill="none" fill-opacity="0.75" fill-rule="evenodd" stroke="#0969DA" stroke-width="17.046761" stroke-linecap="round" stroke-miterlimit="4" d="m211.535065,315.75943l-1.278229,-62.468063" id="path3777"/>
    <path fill="none" fill-opacity="0.75" fill-rule="evenodd" stroke="#0969DA" stroke-width="16.700001" stroke-linecap="round" stroke-linejoin="round" stroke-miterlimit="4" d="m221.410156,256.961517l54.801636,42.535583l72.039063,-36.819946" id="path3781"/>
    <path opacity="0.353211" fill="none" fill-rule="nonzero" stroke-width="16.700001" stroke-linecap="round" stroke-linejoin="round" marker-start="none" marker-mid="none" marker-end="none" stroke-miterlimit="4" stroke-dashoffset="43.68" id="path3783" d="m282.089966,298.866547a6.124322,6.124322 0 1 1 -12.248627,0a6.124322,6.124322 0 1 1 12.248627,0z"/>
    <path fill="none" fill-rule="evenodd" stroke="#c3c3c3" stroke-width="1.5" stroke-miterlimit="4" d="m294.30603,306.082062l47.729706,37.375671c6.571106,6.215546 13.543976,3.75119 19.445435,1.262695l52.022858,-31.062195c6.615997,-3.219879 5.779449,-7.828705 0,-11.364227l-50.507629,-34.597717c-6.349976,-2.173828 -7.635834,-3.001556 -16.414978,1.010132l-52.022858,27.274139c-5.679779,2.855469 -5.164703,6.466248 -0.252533,10.101501z" id="path3051"/>
    <path opacity="0.353211" fill="none" fill-rule="nonzero" stroke-width="16.700001" stroke-linecap="round" stroke-linejoin="round" marker-start="none" marker-mid="none" marker-end="none" stroke-miterlimit="4" stroke-dashoffset="43.68" d="m215.984863,246.395645a6.124322,6.124322 0 1 1 -12.248642,0a6.124322,6.124322 0 1 1 12.248642,0z" id="path3805"/>
    <path fill="none" fill-rule="evenodd" stroke="#c3c3c3" stroke-width="1.5" stroke-miterlimit="4" d="m168.683258,207.044571l36.043884,27.442688c6.571091,6.215546 13.543976,3.75119 19.445435,1.262695l48.224976,-23.4664c6.616028,-3.219864 5.779449,-7.82869 0,-11.364227l-36.48465,-25.833344c-6.349976,-2.173813 -7.635834,-3.001556 -16.414978,1.010147l-50.562119,20.846924c-5.679794,2.855469 -5.164719,6.466248 -0.252548,10.101517z" id="path3765"/>
    <path fill="none" fill-rule="evenodd" stroke="#7e1d0b" stroke-width="1.5" stroke-miterlimit="4" id="path3769" d="m197.332962,246.999985c3.940277,3.148132 6.103561,6.608978 5.164703,15.099319l0.853546,48.232239c-1.3853,4.354248 -2.127884,3.822205 -4.545013,2.761932l-34.250397,-34.397491c-2.917358,-1.046448 -4.987045,-4.020355 -4.820389,-12.079437l-4.475891,-53.636307l42.073441,34.019745z"/>
    <path fill="none" fill-rule="evenodd" stroke="#c3c3c3" stroke-width="1.5" stroke-miterlimit="4" id="path3763" d="m228.281006,253.495773l40.718262,32.409195c6.571106,6.215576 13.543976,3.751221 19.445435,1.262695l49.685669,-26.679993c6.616028,-3.219849 5.779449,-7.82872 0,-11.364273l-41.743256,-31.384109c-6.349945,-2.173828 -7.635803,-3.001556 -16.414948,1.010147l-51.438599,24.644806c-5.67981,2.855499 -5.164734,6.466248 -0.252563,10.101532z"/>
    <path fill="none" fill-rule="evenodd" stroke="#7e1d0b" stroke-width="1.5" stroke-miterlimit="4" d="m168.090958,290.418488l36.288956,31.022522c3.940262,3.148132 6.103561,6.609009 5.164703,15.099304l2.299576,43.274353c-1.385284,4.354248 -3.780502,3.409027 -6.197632,2.348785l-35.283295,-34.190918c-2.917358,-1.046448 -4.98703,-4.020386 -4.820389,-12.079437l-3.649551,-41.448151c0.070206,-4.176392 0.900391,-6.967804 6.197632,-4.026459z" id="path2818"/>
    <path opacity="0.353211" fill="none" fill-rule="nonzero" stroke-width="16.700001" stroke-linecap="round" stroke-linejoin="round" marker-start="none" marker-mid="none" marker-end="none" stroke-miterlimit="4" stroke-dashoffset="43.68" id="path1949" d="m220.577576,392.101135a6.124322,6.124322 0 1 1 -12.248642,0a6.124322,6.124322 0 1 1 12.248642,0z"/>
    <path fill="none" fill-rule="evenodd" stroke="#7e1d0b" stroke-width="1.5" stroke-miterlimit="4" id="path2866" d="m174.494888,360.241943l33.810013,31.43573c3.940262,3.148132 6.103561,6.608978 5.164703,15.099274l2.093002,35.424377c-1.385284,4.354248 -3.780502,3.409027 -6.197632,2.348785l-31.771469,-32.744873c-2.917358,-1.046448 -6.019928,-4.433533 -5.853271,-12.492584l-3.442978,-35.04422c0.070206,-4.176392 0.900391,-6.967804 6.197632,-4.026489z"/>
    <path opacity="0.353211" fill="none" fill-rule="nonzero" stroke-width="16.700001" stroke-linecap="round" stroke-linejoin="round" marker-start="none" marker-mid="none" marker-end="none" stroke-miterlimit="4" stroke-dashoffset="43.68" id="path1955" d="m280.369476,448.09906a6.124322,6.124322 0 1 1 -12.248657,0a6.124322,6.124322 0 1 1 12.248657,0z"/>
    <path opacity="0.353211" fill="none" fill-rule="nonzero" stroke-width="16.700001" stroke-linecap="round" stroke-linejoin="round" marker-start="none" marker-mid="none" marker-end="none" stroke-miterlimit="4" stroke-dashoffset="43.68" d="m280.850464,382.737335a6.124322,6.124322 0 1 1 -12.248627,0a6.124322,6.124322 0 1 1 12.248627,0z" id="path2854"/>
    <path fill="none" fill-opacity="0.75" fill-rule="evenodd" stroke="#0969DA" stroke-width="17.046761" stroke-linecap="round" stroke-miterlimit="4" d="m336.639771,554.973267l0.787567,-51.312744" id="path1963"/>
    <path opacity="0.353211" fill="none" fill-rule="nonzero" stroke-width="16.700001" stroke-linecap="round" stroke-linejoin="round" marker-start="none" marker-mid="none" marker-end="none" stroke-miterlimit="4" stroke-dashoffset="43.68" id="path1965" d="m347.109283,504.432556a6.124322,6.124322 0 1 1 -12.248657,0a6.124322,6.124322 0 1 1 12.248657,0z"/>
    <path fill="none" fill-rule="evenodd" stroke="#c3c3c3" stroke-width="1.5" stroke-miterlimit="4" id="path2860" d="m379.431335,261.557648l46.326721,34.008453c6.571106,6.215546 13.543976,3.75119 19.445435,1.262695l44.166107,-26.85321c6.615967,-3.219849 5.779419,-7.828674 0,-11.364227l-49.385254,-31.791763c-6.349976,-2.173828 -7.635834,-3.001572 -16.414978,1.010147l-43.885468,23.626328c-5.67981,2.855484 -5.164734,6.466293 -0.252563,10.101578z"/>
    <path fill="none" fill-rule="evenodd" stroke="#c3c3c3" stroke-width="1.5" stroke-miterlimit="4" d="m451.264801,223.115463l48.290894,28.677094c6.571106,6.215591 13.543915,3.751221 19.445404,1.262695l36.158997,-22.85675c6.616028,-3.219849 5.77948,-7.828674 0,-11.364212l-48.954315,-28.212021c-6.349976,-2.173828 -7.635803,-3.001556 -16.414978,1.010147l-38.273468,21.381531c-5.67981,2.855484 -5.164703,6.466248 -0.252533,10.101517z" id="path2863"/>
    <path fill="none" fill-rule="evenodd" stroke="#c3c3c3" stroke-width="1.5" stroke-miterlimit="4" d="m307.87851,214.697495l41.275909,29.51886c6.571106,6.215576 13.543976,3.75119 19.445465,1.262695l43.604858,-22.924805c6.616028,-3.219864 5.779449,-7.82869 0,-11.364227l-42.370239,-27.302139c-6.349976,-2.173828 -7.635834,-3.001556 -16.414978,1.010147l-45.288483,19.697937c-5.679779,2.855484 -5.164703,6.466263 -0.252533,10.101532z" id="path2865"/>
    <path fill="none" fill-rule="evenodd" stroke="#c3c3c3" stroke-width="1.5" stroke-miterlimit="4" id="path2867" d="m248.110809,173.449371l36.505768,23.065094c6.571106,6.215546 13.543976,3.75119 19.445435,1.26268l43.32428,-18.435211c6.615997,-3.219864 5.779449,-7.828674 0,-11.364212l-38.441864,-24.776749c-6.349945,-2.173828 -7.635803,-3.001572 -16.414978,1.010147l-44.166107,19.136734c-5.679779,2.855484 -5.164703,6.466248 -0.252533,10.101517z"/>
    <path fill="none" fill-rule="evenodd" stroke="#c3c3c3" stroke-width="1.5" stroke-miterlimit="4" d="m320.786072,142.58345l36.505737,20.820282c6.571106,6.215561 13.543976,3.75119 19.445435,1.26268l39.957092,-19.557602c6.616028,-3.219849 1.570465,-4.461487 -4.208984,-7.997025l-37.319458,-21.409554c-6.349976,-2.173813 -7.635834,-3.001556 -16.414978,1.010139l-37.712311,15.769562c-5.679779,2.855469 -5.164703,6.466248 -0.252533,10.101517z" id="path2869"/>
    <path fill="none" fill-rule="evenodd" stroke="#c3c3c3" stroke-width="1.5" stroke-miterlimit="4" id="path2871" d="m382.482056,179.181427l41.871185,24.756943c6.571075,6.215561 13.543976,3.751205 19.445435,1.262695l36.461975,-18.361298c6.616028,-3.219864 5.779419,-7.828674 0,-11.364227l-43.56073,-23.929108c-6.349976,-2.173813 -7.635834,-3.001556 -16.414978,1.010162l-37.550323,16.523315c-5.67981,2.855484 -5.164734,6.466248 -0.252563,10.101517z"/>
    <path opacity="0.353211" fill="none" fill-rule="nonzero" stroke-width="16.700001" stroke-linecap="round" stroke-linejoin="round" marker-start="none" marker-mid="none" marker-end="none" stroke-miterlimit="4" stroke-dashoffset="43.68" id="path2879" d="m297.719971,207.851608a6.124322,6.124322 0 1 1 -12.248627,0a6.124322,6.124322 0 1 1 12.248627,0z"/>
    <path opacity="0.353211" fill="none" fill-rule="nonzero" stroke-width="16.700001" stroke-linecap="round" stroke-linejoin="round" marker-start="none" marker-mid="none" marker-end="none" stroke-miterlimit="4" stroke-dashoffset="43.68" d="m362.538483,255.553543a6.124322,6.124322 0 1 1 -12.248657,0a6.124322,6.124322 0 1 1 12.248657,0z" id="path2883"/>
    <path opacity="0.353211" fill="none" fill-rule="nonzero" stroke-width="16.700001" stroke-linecap="round" stroke-linejoin="round" marker-start="none" marker-mid="none" marker-end="none" stroke-miterlimit="4" stroke-dashoffset="43.68" id="path2887" d="m439.483154,307.241547a6.124322,6.124322 0 1 1 -12.248627,0a6.124322,6.124322 0 1 1 12.248627,0z"/>
    <path opacity="0.353211" fill="none" fill-rule="nonzero" stroke-width="16.700001" stroke-linecap="round" stroke-linejoin="round" marker-start="none" marker-mid="none" marker-end="none" stroke-miterlimit="4" stroke-dashoffset="43.68" d="m373.513977,174.319748a6.124322,6.124322 0 1 1 -12.248657,0a6.124322,6.124322 0 1 1 12.248657,0z" id="path1995"/>
    <path opacity="0.353211" fill="none" fill-rule="nonzero" stroke-width="16.700001" stroke-linecap="round" stroke-linejoin="round" marker-start="none" marker-mid="none" marker-end="none" stroke-miterlimit="4" stroke-dashoffset="43.68" d="m439.422699,214.586044a6.124322,6.124322 0 1 1 -12.248627,0a6.124322,6.124322 0 1 1 12.248627,0z" id="path2003"/>
    <path opacity="0.353211" fill="none" fill-rule="nonzero" stroke-width="16.700001" stroke-linecap="round" stroke-linejoin="round" marker-start="none" marker-mid="none" marker-end="none" stroke-miterlimit="4" stroke-dashoffset="43.68" d="m514.483521,262.796844a6.124322,6.124322 0 1 1 -12.248627,0a6.124322,6.124322 0 1 1 12.248627,0z" id="path2013"/>
    <path fill="none" fill-rule="evenodd" stroke="#585806" stroke-width="1.5" stroke-miterlimit="4" id="path2910" d="m476.489624,465.354279l7.347382,-40.470764c0.869446,-4.567871 3.995911,-8.650909 7.11792,-10.125916l39.590546,-27.241577c2.396301,-1.258392 5.475342,-2.512054 5.457092,3.857483l-8.752747,42.64151c-0.304199,1.696716 -1.135864,4.340759 -3.796204,6.75061l-41.981476,27.240692c-3.96405,1.882965 -4.965454,-0.309479 -4.982513,-2.652039z"/>
    <path fill="none" fill-rule="evenodd" stroke="#585806" stroke-width="1.5" stroke-miterlimit="4" id="path2904" d="m501.199188,330.162903l6.854248,-50.307556c0.869446,-4.567871 3.99588,-8.650909 7.117889,-10.125916l45.719788,-30.947556c2.396301,-1.258362 5.475342,-2.512024 5.457031,3.857483l-10.456238,53.155807c-0.304199,1.696716 -1.135864,4.340729 -3.796204,6.75061l-45.914032,30.269135c-3.963989,1.882996 -4.965393,-0.309448 -4.982483,-2.652008z"/>
    <path fill="none" fill-rule="evenodd" stroke="#585806" stroke-width="1.5" stroke-miterlimit="4" d="m487.426422,404.381439l6.645935,-45.661865c0.869385,-4.567841 3.995911,-8.650879 7.11792,-10.125916l43.238312,-27.943085c2.396301,-1.258362 5.475342,-2.512054 5.457092,3.857483l-9.033325,46.289337c-0.304199,1.696716 -1.135864,4.340729 -3.796204,6.75058l-44.647186,29.485504c-3.96405,1.882965 -4.965454,-0.309479 -4.982544,-2.652039z" id="path2908"/>
    <path fill="none" fill-rule="evenodd" stroke="#585806" stroke-width="1.5" stroke-miterlimit="4" id="path2855" d="m344.000061,555.919434l1.523956,-39.953247c0.869415,-4.56781 3.99588,-8.650879 7.117889,-10.125854l50.007263,-33.153503c2.396301,-1.258392 5.475342,-2.512054 5.457062,3.857483l-4.743195,41.785522c-0.304199,1.696716 -1.135864,4.340759 -3.796204,6.75061l-50.584259,33.491028c-3.96402,1.882935 -4.965424,-0.309448 -4.982513,-2.652039z"/>
    <path fill="none" fill-rule="evenodd" stroke="#585806" stroke-width="1.5" stroke-miterlimit="4" id="path3053" d="m353.529388,426.447968l3.084442,-56.656799c0.869385,-4.567871 3.99588,-8.650909 7.117889,-10.125916l55.045197,-34.717346c2.396301,-1.258392 5.475342,-2.512054 5.457062,3.857452l-5.694305,55.933563c-0.304199,1.696716 -1.135895,4.340729 -3.796234,6.75058l-56.231506,37.610474c-3.96405,1.882996 -4.965454,-0.309448 -4.982544,-2.652008z"/>
    <path fill="none" fill-rule="evenodd" stroke="#585806" stroke-width="1.5" stroke-miterlimit="4" d="m348.364929,496.271423l1.431793,-44.675232c0.869415,-4.567871 3.995911,-8.650909 7.11792,-10.125916l53.186005,-36.989716c2.396301,-1.258362 5.475342,-2.512054 5.457062,3.857483l-4.041687,47.257233c-0.30423,1.696716 -1.135895,4.340759 -3.796234,6.75061l-54.372314,36.577576c-3.96405,1.882996 -4.965454,-0.309448 -4.982544,-2.652039z" id="path1958"/>
    <path fill="none" fill-rule="evenodd" stroke="#585806" stroke-width="1.5" stroke-miterlimit="4" d="m411.915405,509.142151l5.523529,-40.190155c0.869385,-4.567841 3.99588,-8.650879 7.117889,-10.125916l45.342865,-30.749054c2.396301,-1.258392 5.475342,-2.512054 5.457062,3.857452l-7.770599,41.659454c-0.304199,1.696716 -1.135895,4.340729 -3.796234,6.75058l-46.891968,31.449677c-3.96405,1.882996 -4.965454,-0.309448 -4.982544,-2.652039z" id="path2912"/>
    <path fill="none" fill-rule="evenodd" stroke="#585806" stroke-width="1.5" stroke-miterlimit="4" d="m432.349609,375.20282l6.655884,-52.093292c0.869415,-4.567841 3.995911,-8.650879 7.11792,-10.125885l48.894379,-30.749084c2.396301,-1.258392 5.475342,-2.512054 5.457031,3.857452l-8.273682,51.568451c-0.304199,1.696716 -1.135864,4.340729 -3.796204,6.75061l-51.072784,33.443787c-3.96405,1.882965 -4.965454,-0.309479 -4.982544,-2.652039z" id="path2017"/>
    <path fill="none" fill-rule="evenodd" stroke="#585806" stroke-width="1.5" stroke-miterlimit="4" id="path2906" d="m421.040039,445.292847l5.663788,-45.942474c0.869415,-4.567841 3.995911,-8.650879 7.11792,-10.125885l47.307068,-30.749115c2.396301,-1.258362 5.475342,-2.512024 5.457031,3.857483l-8.472046,48.393829c-0.30423,1.696716 -1.135925,4.340729 -3.796265,6.75061l-48.294983,30.46756c-3.96402,1.882996 -4.965454,-0.309448 -4.982513,-2.652008z"/>
    <path fill="none" fill-rule="evenodd" stroke="#7e1d0b" stroke-width="1.5" stroke-miterlimit="4" d="m283.467682,393.99585l46.000641,39.542419c3.940277,3.148132 6.103546,6.608978 5.164703,15.099274l-1.583862,43.203461c-1.385315,4.354248 -3.780518,3.409058 -6.197662,2.348755l-44.416779,-41.40036c-2.917358,-1.046448 -4.98703,-4.020386 -4.820374,-12.079437l-0.34433,-42.687622c0.070221,-4.176392 0.900421,-6.967804 6.197662,-4.026489z" id="path1927"/>
    <path fill="none" fill-rule="evenodd" stroke="#7e1d0b" stroke-width="1.5" stroke-miterlimit="4" id="path3047" d="m283.448334,316.516327l54.05719,38.922668c3.940277,3.148132 6.103577,6.608978 5.164703,15.099274l-2.410187,51.673187c-1.385284,4.354248 -3.780518,3.409027 -6.197632,2.348755l-51.647034,-41.606964c-2.917358,-1.046448 -4.98703,-4.020355 -4.820374,-12.079437l-0.34433,-50.330994c0.070221,-4.176392 0.900421,-6.967834 6.197662,-4.026489z"/>
    <path fill="none" fill-rule="evenodd" stroke="#7e1d0b" stroke-width="1.5" stroke-miterlimit="4" id="path2862" d="m283.603363,463.288422l42.901978,39.129242c3.940247,3.148132 6.103546,6.609009 5.164703,15.099304l-0.964142,35.766602c-1.385284,4.354248 -3.780518,3.409058 -6.197632,2.348816l-41.318115,-40.987244c-2.917358,-1.046448 -4.98703,-4.020386 -4.820374,-12.079468l-0.96405,-35.250763c0.070221,-4.176392 0.900391,-6.967804 6.197632,-4.026489z"/>
    <path fill="none" fill-rule="evenodd" stroke="#7e1d0b" stroke-width="1.5" stroke-miterlimit="4" d="m217.469269,261.274323l45.585022,38.046234c3.940247,3.148132 6.103546,6.608978 5.164703,15.099274l1.67984,50.504608c-1.385284,4.354248 -3.780518,3.409027 -6.197632,2.348785l-47.264877,-39.561951c-2.917358,-1.046448 -4.98703,-4.020386 -4.820389,-12.079437l-0.344315,-50.331024c0.070221,-4.176392 0.900406,-6.967804 6.197647,-4.026489z" id="path3767"/>
    <path fill="none" fill-rule="evenodd" stroke="#7e1d0b" stroke-width="1.5" stroke-miterlimit="4" d="m224.906097,408.926086l39.387634,36.393585c3.940277,3.148132 6.103577,6.608978 5.164703,15.099304l0.853546,33.978302c-1.385284,4.354248 -3.780518,3.409058 -6.197632,2.348816l-38.175415,-36.669891c-2.917358,-1.046417 -4.98703,-4.020355 -4.820389,-12.079437l-2.410095,-35.044189c0.070221,-4.176392 0.900406,-6.967834 6.197647,-4.026489z" id="path2864"/>
    <path fill="none" fill-rule="evenodd" stroke="#7e1d0b" stroke-width="1.5" stroke-miterlimit="4" id="path2816" d="m222.220581,339.928925l41.246857,36.600159c3.940247,3.148132 6.103546,6.608978 5.164703,15.099304l0.646942,43.6875c-1.385284,4.354248 -3.780518,3.409027 -6.197632,2.348755l-40.034607,-36.876404c-2.917358,-1.046448 -4.987045,-4.020386 -4.820389,-12.079468l-2.203522,-44.753387c0.070221,-4.176392 0.900391,-6.967804 6.197647,-4.026459z"/>
    <path fill="none" fill-opacity="0.75" fill-rule="evenodd" stroke="#0969DA" stroke-width="3.544" stroke-linecap="round" stroke-miterlimit="4" d="m282.911255,390.897888l55.28299,45.884308" id="path7601"/>
    <path fill="none" fill-opacity="0.75" fill-rule="evenodd" stroke="#0969DA" stroke-width="3.544" stroke-linecap="round" stroke-miterlimit="4" id="path7605" d="m278.930359,457.436005l55.28299,45.884308"/>
    <path fill="none" fill-opacity="0.75" fill-rule="evenodd" stroke="#0969DA" stroke-width="3.544" stroke-linecap="round" stroke-miterlimit="4" id="path7619" d="m415.176086,396.259674l-66.810791,43.739563"/>
    <path fill="none" fill-opacity="0.75" fill-rule="evenodd" stroke="#0969DA" stroke-width="3.544" stroke-linecap="round" stroke-miterlimit="4" d="m410.618591,464.354156l-63.057587,41.058685" id="path7623"/>
   </g>
  </g>
  <polyline id="svg_1" points="544.646 154.616 545.646 155.616" stroke-linecap="round" stroke-width="5" stroke="#0969DA" fill="none"/>
 </g>
</svg>
